<?xml version="1.0" encoding="UTF-8" standalone="no"?>
<!DOCTYPE svg PUBLIC "-//W3C//DTD SVG 1.1//EN"
 "http://www.w3.org/Graphics/SVG/1.1/DTD/svg11.dtd">
<!-- Generated by graphviz version 2.40.1 (20161225.0304)
 -->
<!-- Title: controllers_diagram Pages: 1 -->
<svg width="451pt" height="439pt"
 viewBox="0.00 0.00 450.54 439.00" xmlns="http://www.w3.org/2000/svg" xmlns:xlink="http://www.w3.org/1999/xlink">
<g id="graph0" class="graph" transform="scale(1 1) rotate(0) translate(4 435)">
<title>controllers_diagram</title>
<polygon fill="transparent" stroke="transparent" points="-4,4 -4,-435 446.5381,-435 446.5381,4 -4,4"/>
<!-- _diagram_info -->
<g id="node1" class="node">
<title>_diagram_info</title>
<text text-anchor="start" x="212" y="-296.6" font-family="Times,serif" font-size="13.00" fill="#000000">Controllers diagram</text>
<text text-anchor="start" x="212" y="-283.6" font-family="Times,serif" font-size="13.00" fill="#000000">Date: Dec 04 2018 &#45; 11:09</text>
<text text-anchor="start" x="212" y="-270.6" font-family="Times,serif" font-size="13.00" fill="#000000">Migration version: 20181128101632</text>
<text text-anchor="start" x="212" y="-257.6" font-family="Times,serif" font-size="13.00" fill="#000000">Generated by RailRoady 1.5.3</text>
<text text-anchor="start" x="212" y="-244.6" font-family="Times,serif" font-size="13.00" fill="#000000">http://railroady.prestonlee.com</text>
</g>
<!-- ApplicationController -->
<g id="node2" class="node">
<title>ApplicationController</title>
<path fill="none" stroke="#000000" d="M46,-255.5C46,-255.5 161.6416,-255.5 161.6416,-255.5 167.6416,-255.5 173.6416,-261.5 173.6416,-267.5 173.6416,-267.5 173.6416,-335.5 173.6416,-335.5 173.6416,-341.5 167.6416,-347.5 161.6416,-347.5 161.6416,-347.5 46,-347.5 46,-347.5 40,-347.5 34,-341.5 34,-335.5 34,-335.5 34,-267.5 34,-267.5 34,-261.5 40,-255.5 46,-255.5"/>
<text text-anchor="middle" x="103.8208" y="-332.3" font-family="Times,serif" font-size="14.00" fill="#000000">ApplicationController</text>
<polyline fill="none" stroke="#000000" points="34,-325.5 173.6416,-325.5 "/>
<polyline fill="none" stroke="#000000" points="34,-301.5 173.6416,-301.5 "/>
<polyline fill="none" stroke="#000000" points="34,-277.5 173.6416,-277.5 "/>
<text text-anchor="start" x="42" y="-262.3" font-family="Times,serif" font-size="14.00" fill="#000000">_layout</text>
</g>
<!-- ReservationsController -->
<g id="node3" class="node">
<title>ReservationsController</title>
<path fill="none" stroke="#000000" d="M12,-17.5C12,-17.5 158.7314,-17.5 158.7314,-17.5 164.7314,-17.5 170.7314,-23.5 170.7314,-29.5 170.7314,-29.5 170.7314,-207.5 170.7314,-207.5 170.7314,-213.5 164.7314,-219.5 158.7314,-219.5 158.7314,-219.5 12,-219.5 12,-219.5 6,-219.5 0,-213.5 0,-207.5 0,-207.5 0,-29.5 0,-29.5 0,-23.5 6,-17.5 12,-17.5"/>
<text text-anchor="middle" x="85.3657" y="-204.3" font-family="Times,serif" font-size="14.00" fill="#000000">ReservationsController</text>
<polyline fill="none" stroke="#000000" points="0,-197.5 170.7314,-197.5 "/>
<text text-anchor="start" x="8" y="-182.3" font-family="Times,serif" font-size="14.00" fill="#000000">createid</text>
<text text-anchor="start" x="8" y="-168.3" font-family="Times,serif" font-size="14.00" fill="#000000">destroy</text>
<text text-anchor="start" x="8" y="-154.3" font-family="Times,serif" font-size="14.00" fill="#000000">edit</text>
<text text-anchor="start" x="8" y="-140.3" font-family="Times,serif" font-size="14.00" fill="#000000">index</text>
<text text-anchor="start" x="8" y="-126.3" font-family="Times,serif" font-size="14.00" fill="#000000">reservationwithmeetroomid</text>
<text text-anchor="start" x="8" y="-112.3" font-family="Times,serif" font-size="14.00" fill="#000000">show</text>
<text text-anchor="start" x="8" y="-98.3" font-family="Times,serif" font-size="14.00" fill="#000000">update</text>
<polyline fill="none" stroke="#000000" points="0,-91.5 170.7314,-91.5 "/>
<polyline fill="none" stroke="#000000" points="0,-67.5 170.7314,-67.5 "/>
<text text-anchor="start" x="8" y="-52.3" font-family="Times,serif" font-size="14.00" fill="#000000">_layout</text>
<text text-anchor="start" x="8" y="-38.3" font-family="Times,serif" font-size="14.00" fill="#000000">find_reservation</text>
<text text-anchor="start" x="8" y="-24.3" font-family="Times,serif" font-size="14.00" fill="#000000">reservation_params</text>
</g>
<!-- CompaniesController -->
<g id="node4" class="node">
<title>CompaniesController</title>
<path fill="none" stroke="#000000" d="M318,-340.5C318,-340.5 430.5381,-340.5 430.5381,-340.5 436.5381,-340.5 442.5381,-346.5 442.5381,-352.5 442.5381,-352.5 442.5381,-418.5 442.5381,-418.5 442.5381,-424.5 436.5381,-430.5 430.5381,-430.5 430.5381,-430.5 318,-430.5 318,-430.5 312,-430.5 306,-424.5 306,-418.5 306,-418.5 306,-352.5 306,-352.5 306,-346.5 312,-340.5 318,-340.5"/>
<text text-anchor="middle" x="374.269" y="-415.3" font-family="Times,serif" font-size="14.00" fill="#000000">CompaniesController</text>
<polyline fill="none" stroke="#000000" points="306,-408.5 442.5381,-408.5 "/>
<text text-anchor="start" x="314" y="-393.3" font-family="Times,serif" font-size="14.00" fill="#000000">index</text>
<polyline fill="none" stroke="#000000" points="306,-386.5 442.5381,-386.5 "/>
<polyline fill="none" stroke="#000000" points="306,-362.5 442.5381,-362.5 "/>
<text text-anchor="start" x="314" y="-347.3" font-family="Times,serif" font-size="14.00" fill="#000000">_layout</text>
</g>
<!-- MeetroomsController -->
<g id="node5" class="node">
<title>MeetroomsController</title>
<path fill="none" stroke="#000000" d="M216,-.5C216,-.5 329.3105,-.5 329.3105,-.5 335.3105,-.5 341.3105,-6.5 341.3105,-12.5 341.3105,-12.5 341.3105,-190.5 341.3105,-190.5 341.3105,-196.5 335.3105,-202.5 329.3105,-202.5 329.3105,-202.5 216,-202.5 216,-202.5 210,-202.5 204,-196.5 204,-190.5 204,-190.5 204,-12.5 204,-12.5 204,-6.5 210,-.5 216,-.5"/>
<text text-anchor="middle" x="272.6553" y="-187.3" font-family="Times,serif" font-size="14.00" fill="#000000">MeetroomsController</text>
<polyline fill="none" stroke="#000000" points="204,-180.5 341.3105,-180.5 "/>
<text text-anchor="start" x="212" y="-165.3" font-family="Times,serif" font-size="14.00" fill="#000000">create</text>
<text text-anchor="start" x="212" y="-151.3" font-family="Times,serif" font-size="14.00" fill="#000000">destroy</text>
<text text-anchor="start" x="212" y="-137.3" font-family="Times,serif" font-size="14.00" fill="#000000">edit</text>
<text text-anchor="start" x="212" y="-123.3" font-family="Times,serif" font-size="14.00" fill="#000000">index</text>
<text text-anchor="start" x="212" y="-109.3" font-family="Times,serif" font-size="14.00" fill="#000000">new</text>
<text text-anchor="start" x="212" y="-95.3" font-family="Times,serif" font-size="14.00" fill="#000000">show</text>
<text text-anchor="start" x="212" y="-81.3" font-family="Times,serif" font-size="14.00" fill="#000000">update</text>
<polyline fill="none" stroke="#000000" points="204,-74.5 341.3105,-74.5 "/>
<polyline fill="none" stroke="#000000" points="204,-50.5 341.3105,-50.5 "/>
<text text-anchor="start" x="212" y="-35.3" font-family="Times,serif" font-size="14.00" fill="#000000">_layout</text>
<text text-anchor="start" x="212" y="-21.3" font-family="Times,serif" font-size="14.00" fill="#000000">find_meetroom</text>
<text text-anchor="start" x="212" y="-7.3" font-family="Times,serif" font-size="14.00" fill="#000000">meetroom_params</text>
</g>
</g>
</svg>
