<?xml version="1.0" encoding="UTF-8" standalone="no"?>
<!DOCTYPE svg PUBLIC "-//W3C//DTD SVG 1.1//EN"
 "http://www.w3.org/Graphics/SVG/1.1/DTD/svg11.dtd">
<!-- Generated by graphviz version 2.40.1 (20161225.0304)
 -->
<!-- Title: models_diagram Pages: 1 -->
<svg width="690pt" height="316pt"
 viewBox="0.00 0.00 689.85 316.00" xmlns="http://www.w3.org/2000/svg" xmlns:xlink="http://www.w3.org/1999/xlink">
<g id="graph0" class="graph" transform="scale(1 1) rotate(0) translate(4 312)">
<title>models_diagram</title>
<polygon fill="transparent" stroke="transparent" points="-4,4 -4,-312 685.8455,-312 685.8455,4 -4,4"/>
<!-- _diagram_info -->
<g id="node1" class="node">
<title>_diagram_info</title>
<text text-anchor="start" x="8" y="-279.6" font-family="Times,serif" font-size="13.00" fill="#000000">Models diagram</text>
<text text-anchor="start" x="8" y="-266.6" font-family="Times,serif" font-size="13.00" fill="#000000">Date: Dec 04 2018 &#45; 11:09</text>
<text text-anchor="start" x="8" y="-253.6" font-family="Times,serif" font-size="13.00" fill="#000000">Migration version: 20181128101632</text>
<text text-anchor="start" x="8" y="-240.6" font-family="Times,serif" font-size="13.00" fill="#000000">Generated by RailRoady 1.5.3</text>
<text text-anchor="start" x="8" y="-227.6" font-family="Times,serif" font-size="13.00" fill="#000000">http://railroady.prestonlee.com</text>
</g>
<!-- Meetroom -->
<g id="node2" class="node">
<title>Meetroom</title>
<path fill="none" stroke="#000000" d="M236.9443,-207.5C236.9443,-207.5 345.9551,-207.5 345.9551,-207.5 351.9551,-207.5 357.9551,-213.5 357.9551,-219.5 357.9551,-219.5 357.9551,-295.5 357.9551,-295.5 357.9551,-301.5 351.9551,-307.5 345.9551,-307.5 345.9551,-307.5 236.9443,-307.5 236.9443,-307.5 230.9443,-307.5 224.9443,-301.5 224.9443,-295.5 224.9443,-295.5 224.9443,-219.5 224.9443,-219.5 224.9443,-213.5 230.9443,-207.5 236.9443,-207.5"/>
<text text-anchor="middle" x="291.4497" y="-292.3" font-family="Times,serif" font-size="14.00" fill="#000000">Meetroom</text>
<polyline fill="none" stroke="#000000" points="224.9443,-285.5 357.9551,-285.5 "/>
<text text-anchor="start" x="232.9443" y="-270.3" font-family="Times,serif" font-size="14.00" fill="#000000">id :integer</text>
<text text-anchor="start" x="232.9443" y="-256.3" font-family="Times,serif" font-size="14.00" fill="#000000">number :integer</text>
<text text-anchor="start" x="232.9443" y="-242.3" font-family="Times,serif" font-size="14.00" fill="#000000">title :varchar</text>
<text text-anchor="start" x="232.9443" y="-228.3" font-family="Times,serif" font-size="14.00" fill="#000000">created_at :datetime</text>
<text text-anchor="start" x="232.9443" y="-214.3" font-family="Times,serif" font-size="14.00" fill="#000000">updated_at :datetime</text>
</g>
<!-- Reservation -->
<g id="node5" class="node">
<title>Reservation</title>
<path fill="none" stroke="#000000" d="M228.7788,-.5C228.7788,-.5 354.1206,-.5 354.1206,-.5 360.1206,-.5 366.1206,-6.5 366.1206,-12.5 366.1206,-12.5 366.1206,-158.5 366.1206,-158.5 366.1206,-164.5 360.1206,-170.5 354.1206,-170.5 354.1206,-170.5 228.7788,-170.5 228.7788,-170.5 222.7788,-170.5 216.7788,-164.5 216.7788,-158.5 216.7788,-158.5 216.7788,-12.5 216.7788,-12.5 216.7788,-6.5 222.7788,-.5 228.7788,-.5"/>
<text text-anchor="middle" x="291.4497" y="-155.3" font-family="Times,serif" font-size="14.00" fill="#000000">Reservation</text>
<polyline fill="none" stroke="#000000" points="216.7788,-148.5 366.1206,-148.5 "/>
<text text-anchor="start" x="224.7788" y="-133.3" font-family="Times,serif" font-size="14.00" fill="#000000">updated_at :datetime</text>
<text text-anchor="start" x="224.7788" y="-119.3" font-family="Times,serif" font-size="14.00" fill="#000000">meetroom_id :integer</text>
<text text-anchor="start" x="224.7788" y="-105.3" font-family="Times,serif" font-size="14.00" fill="#000000">userName :varchar</text>
<text text-anchor="start" x="224.7788" y="-91.3" font-family="Times,serif" font-size="14.00" fill="#000000">dateBoth :date</text>
<text text-anchor="start" x="224.7788" y="-77.3" font-family="Times,serif" font-size="14.00" fill="#000000">timeStart :time</text>
<text text-anchor="start" x="224.7788" y="-63.3" font-family="Times,serif" font-size="14.00" fill="#000000">timeEnd :time</text>
<text text-anchor="start" x="224.7788" y="-49.3" font-family="Times,serif" font-size="14.00" fill="#000000">timeDateStart :datetime</text>
<text text-anchor="start" x="224.7788" y="-35.3" font-family="Times,serif" font-size="14.00" fill="#000000">timeDateEnd :datetime</text>
<text text-anchor="start" x="224.7788" y="-21.3" font-family="Times,serif" font-size="14.00" fill="#000000">created_at :datetime</text>
<text text-anchor="start" x="224.7788" y="-7.3" font-family="Times,serif" font-size="14.00" fill="#000000">id :integer</text>
</g>
<!-- Meetroom&#45;&gt;Reservation -->
<g id="edge1" class="edge">
<title>Meetroom&#45;&gt;Reservation</title>
<path fill="none" stroke="#99e8bc" d="M291.4497,-199.043C291.4497,-193.191 291.4497,-187.1488 291.4497,-181.0417"/>
<ellipse fill="none" stroke="#99e8bc" cx="291.4498" cy="-203.2881" rx="4" ry="4"/>
<polygon fill="#99e8bc" stroke="#99e8bc" points="291.4498,-180.7245 295.9497,-170.7244 291.4498,-175.7245 291.4497,-170.7245 291.4497,-170.7245 291.4497,-170.7245 291.4498,-175.7245 286.9497,-170.7245 291.4498,-180.7245 291.4498,-180.7245"/>
</g>
<!-- Company -->
<g id="node3" class="node">
<title>Company</title>
<path fill="none" stroke="#000000" d="M387.9443,-207.5C387.9443,-207.5 496.9551,-207.5 496.9551,-207.5 502.9551,-207.5 508.9551,-213.5 508.9551,-219.5 508.9551,-219.5 508.9551,-295.5 508.9551,-295.5 508.9551,-301.5 502.9551,-307.5 496.9551,-307.5 496.9551,-307.5 387.9443,-307.5 387.9443,-307.5 381.9443,-307.5 375.9443,-301.5 375.9443,-295.5 375.9443,-295.5 375.9443,-219.5 375.9443,-219.5 375.9443,-213.5 381.9443,-207.5 387.9443,-207.5"/>
<text text-anchor="middle" x="442.4497" y="-292.3" font-family="Times,serif" font-size="14.00" fill="#000000">Company</text>
<polyline fill="none" stroke="#000000" points="375.9443,-285.5 508.9551,-285.5 "/>
<text text-anchor="start" x="383.9443" y="-270.3" font-family="Times,serif" font-size="14.00" fill="#000000">id :integer</text>
<text text-anchor="start" x="383.9443" y="-256.3" font-family="Times,serif" font-size="14.00" fill="#000000">name :varchar</text>
<text text-anchor="start" x="383.9443" y="-242.3" font-family="Times,serif" font-size="14.00" fill="#000000">description :varchar</text>
<text text-anchor="start" x="383.9443" y="-228.3" font-family="Times,serif" font-size="14.00" fill="#000000">created_at :datetime</text>
<text text-anchor="start" x="383.9443" y="-214.3" font-family="Times,serif" font-size="14.00" fill="#000000">updated_at :datetime</text>
</g>
<!-- ApplicationRecord -->
<g id="node4" class="node">
<title>ApplicationRecord</title>
<ellipse fill="none" stroke="#000000" cx="604.4497" cy="-257.5" rx="77.2916" ry="18"/>
<text text-anchor="middle" x="604.4497" y="-253.3" font-family="Times,serif" font-size="14.00" fill="#000000">ApplicationRecord</text>
</g>
</g>
</svg>
