<?xml version="1.0" encoding="UTF-8" standalone="no"?>
<!DOCTYPE svg PUBLIC "-//W3C//DTD SVG 1.1//EN"
 "http://www.w3.org/Graphics/SVG/1.1/DTD/svg11.dtd">
<!-- Generated by graphviz version 2.40.1 (20161225.0304)
 -->
<!-- Title: models_diagram Pages: 1 -->
<svg width="606pt" height="153pt"
 viewBox="0.00 0.00 605.85 153.00" xmlns="http://www.w3.org/2000/svg" xmlns:xlink="http://www.w3.org/1999/xlink">
<g id="graph0" class="graph" transform="scale(1 1) rotate(0) translate(4 149)">
<title>models_diagram</title>
<polygon fill="transparent" stroke="transparent" points="-4,4 -4,-149 601.8455,-149 601.8455,4 -4,4"/>
<!-- _diagram_info -->
<g id="node1" class="node">
<title>_diagram_info</title>
<text text-anchor="start" x="8" y="-130.6" font-family="Times,serif" font-size="13.00" fill="#000000">Models diagram</text>
<text text-anchor="start" x="8" y="-117.6" font-family="Times,serif" font-size="13.00" fill="#000000">Date: Dec 04 2018 &#45; 11:09</text>
<text text-anchor="start" x="8" y="-104.6" font-family="Times,serif" font-size="13.00" fill="#000000">Migration version: 20181128101632</text>
<text text-anchor="start" x="8" y="-91.6" font-family="Times,serif" font-size="13.00" fill="#000000">Generated by RailRoady 1.5.3</text>
<text text-anchor="start" x="8" y="-78.6" font-family="Times,serif" font-size="13.00" fill="#000000">http://railroady.prestonlee.com</text>
</g>
<!-- Meetroom -->
<g id="node2" class="node">
<title>Meetroom</title>
<ellipse fill="none" stroke="#000000" cx="271.4497" cy="-108.5" rx="46.8891" ry="18"/>
<text text-anchor="middle" x="271.4497" y="-104.3" font-family="Times,serif" font-size="14.00" fill="#000000">Meetroom</text>
</g>
<!-- Reservation -->
<g id="node5" class="node">
<title>Reservation</title>
<ellipse fill="none" stroke="#000000" cx="271.4497" cy="-18" rx="52.1934" ry="18"/>
<text text-anchor="middle" x="271.4497" y="-13.8" font-family="Times,serif" font-size="14.00" fill="#000000">Reservation</text>
</g>
<!-- Meetroom&#45;&gt;Reservation -->
<g id="edge1" class="edge">
<title>Meetroom&#45;&gt;Reservation</title>
<path fill="none" stroke="#cb7bb6" d="M271.4497,-81.9687C271.4497,-70.8402 271.4497,-57.878 271.4497,-46.5429"/>
<ellipse fill="none" stroke="#cb7bb6" cx="271.4498" cy="-86.186" rx="4" ry="4"/>
<polygon fill="#cb7bb6" stroke="#cb7bb6" points="271.4498,-46.2868 275.9497,-36.2867 271.4498,-41.2868 271.4497,-36.2868 271.4497,-36.2868 271.4497,-36.2868 271.4498,-41.2868 266.9497,-36.2868 271.4498,-46.2868 271.4498,-46.2868"/>
</g>
<!-- Company -->
<g id="node3" class="node">
<title>Company</title>
<ellipse fill="none" stroke="#000000" cx="380.4497" cy="-108.5" rx="44.4923" ry="18"/>
<text text-anchor="middle" x="380.4497" y="-104.3" font-family="Times,serif" font-size="14.00" fill="#000000">Company</text>
</g>
<!-- ApplicationRecord -->
<g id="node4" class="node">
<title>ApplicationRecord</title>
<ellipse fill="none" stroke="#000000" cx="520.4497" cy="-108.5" rx="77.2916" ry="18"/>
<text text-anchor="middle" x="520.4497" y="-104.3" font-family="Times,serif" font-size="14.00" fill="#000000">ApplicationRecord</text>
</g>
</g>
</svg>
